<?xml version="1.0" encoding="utf-8"?>
<!-- Generator: Adobe Illustrator 23.0.0, SVG Export Plug-In . SVG Version: 6.00 Build 0)  -->
<svg version="1.1" id="Camada_1" xmlns="http://www.w3.org/2000/svg" xmlns:xlink="http://www.w3.org/1999/xlink" x="0px" y="0px"
	 viewBox="0 0 735.7 165.5" style="enable-background:new 0 0 735.7 165.5;" xml:space="preserve">
<style type="text/css">
	.st0{fill:#000000;}
	.st1{fill:#C0C0C0;}
</style>
<g id="Group_11" transform="translate(-170.288 -396.543)">
	<path id="Path_3" class="st0" d="M740.6,561.7h-25.8V446.6h25.8V561.7z"/>
	<path id="Path_6" class="st0" d="M226.3,470.2c-8.1-0.1-15.8,3.2-21.3,9.1c-5.8,6-8.7,14.3-8.7,24.8c0,10.6,2.9,19,8.8,25.1
		c5.6,6,13.4,9.3,21.6,9.2c7.6,0,13.7-2.1,18.3-6.2c4.3-3.7,7.4-8.6,9.1-14l22.8,8.3c-3,9.7-8.8,18.1-17.4,25.1
		s-19.5,10.5-32.8,10.5c-16,0-29.4-5.5-40.2-16.6s-16.2-24.9-16.2-41.4c0-16.7,5.3-30.5,16-41.4s23.9-16.4,39.8-16.4
		c13.6,0,24.7,3.5,33.3,10.5c8.6,7,14.1,15.5,16.7,25.3l-23.3,8.5c-1.4-5.5-4.4-10.6-8.6-14.4C239.8,472.2,233.9,470.2,226.3,470.2z
		"/>
	<path id="Path_7" class="st0" d="M319.7,528.9c5.7,6,13.7,9.4,22,9.2c8.3,0.2,16.2-3.1,22-9.1c6-6.1,9-14.5,9-25.4
		c0-10.7-3-19-9-25c-5.8-5.9-13.7-9.2-22-9c-8.3-0.2-16.2,3.1-22,9c-6,6-9,14.3-9,25C310.7,514.3,313.7,522.8,319.7,528.9z
		 M341.7,446.3c16.7,0,30.5,5.4,41.3,16.2c10.9,10.8,16.3,24.5,16.3,41.2c0,16.6-5.4,30.4-16.3,41.3c-10.9,10.9-24.6,16.3-41.3,16.3
		c-16.5,0-30.2-5.4-41.1-16.3c-10.9-10.9-16.3-24.7-16.3-41.3c0-16.6,5.4-30.3,16.3-41.2C311.4,451.7,325.1,446.3,341.7,446.3
		L341.7,446.3z"/>
	<path id="Path_1" class="st0" d="M466.6,447v26.3c-2.8-0.4-5.7-0.7-8.5-0.7c-19.6,0-29.3,9.6-29.3,30.9v57.8h-26V446.6h25.3V465
		c2.5-5.8,6.8-10.6,12.3-13.7c5.8-3.4,12.5-5.1,19.3-5C462,446.3,464.4,446.5,466.6,447z"/>
	<path id="Path_8" class="st0" d="M502.1,491.9H560c-0.2-6.5-3-12.7-7.9-17.1c-4.9-4.6-12-6.9-21.2-6.9c-8.4,0-15.2,2.4-20.3,7.2
		C505.4,479.9,502.6,485.5,502.1,491.9z M563.1,520.1l23.7,6.9c-3.4,9.9-9.7,18.1-19,24.6s-20.7,9.7-34.3,9.7
		c-16.8,0-31-5.3-42.7-15.8s-17.6-24.6-17.6-42.3c0-16.6,5.7-30.3,17.1-40.9c10.8-10.4,25.3-16.2,40.3-16c18.1,0,32.2,5.1,42.4,15.2
		c10.2,10.2,15.3,23.8,15.3,41c0,4.6-0.2,7.3-0.7,8.2h-86.2c0.2,7.8,3.8,15.2,9.8,20.2c6.2,5.3,14.2,8.2,22.4,8
		C548.7,539,558.6,532.7,563.1,520.1z"/>
	<path id="Path_2" class="st0" d="M620.2,561.7h-26.4V396.5h26.6V463c2.8-4.6,7.4-8.5,13.8-11.6c6.9-3.2,14.4-4.9,22-4.7
		c16.5,0,29.4,5.3,38.7,16s13.9,24.3,13.9,40.9c0,16.9-4.9,30.7-14.6,41.6c-9.7,10.8-22.7,16.2-38.9,16.2s-27.9-5.7-35.1-17.2V561.7
		z M672.9,529c5.7-6.2,8.5-14.6,8.5-25.2c0-10.6-2.8-18.9-8.4-25c-5.6-6-13-9.1-22.2-9.1c-8.9,0-16.2,3-22,9.1
		c-5.8,6-8.6,14.4-8.6,25c0,10.5,2.9,18.8,8.6,25.1c5.8,6.3,13.1,9.4,22,9.4C659.9,538.3,667.2,535.2,672.9,529z"/>
	<path id="Path_4" class="st0" d="M862.6,561.6H748.8V539l71.9-69.6h-73.1v-22.8h114.8v21.9l-72.8,70.2h73L862.6,561.6L862.6,561.6z
		"/>
	<path id="Path_5" class="st1" d="M873.5,556.1c-3.6-3.5-5.6-8.4-5.5-13.4c-0.1-5.1,1.9-9.9,5.5-13.5c3.5-3.7,8.3-5.7,13.4-5.6
		c5.1-0.1,10,1.9,13.5,5.6c3.7,3.5,5.7,8.4,5.6,13.5c0.1,5.1-1.9,9.9-5.6,13.4c-3.6,3.6-8.5,5.6-13.5,5.5
		C881.9,561.7,877,559.7,873.5,556.1z"/>
</g>
</svg>
