<?xml version="1.0" encoding="utf-8"?>
<!-- Generator: Adobe Illustrator 23.0.0, SVG Export Plug-In . SVG Version: 6.00 Build 0)  -->
<svg version="1.1" id="Camada_1" xmlns="http://www.w3.org/2000/svg" xmlns:xlink="http://www.w3.org/1999/xlink" x="0px" y="0px"
	 viewBox="0 0 735.7 165.5" style="enable-background:new 0 0 735.7 165.5;" xml:space="preserve">
<style type="text/css">
	.st0{fill:#FCFCFC;}
	.st1{fill:#C0C0C0;}
</style>
<g id="Group_11" transform="translate(-170.288 -396.543)">
	<path id="Path_6" class="st0" d="M226.3,470.2c-8.1-0.1-15.8,3.2-21.3,9.1c-5.8,6-8.7,14.3-8.7,24.8c0,10.6,2.9,19,8.8,25.1
		c5.6,6,13.4,9.3,21.6,9.2c7.6,0,13.7-2.1,18.3-6.2c4.3-3.7,7.4-8.6,9.1-14l22.8,8.3c-3,9.7-8.8,18.1-17.4,25.1
		s-19.5,10.5-32.8,10.5c-16,0-29.4-5.5-40.2-16.6s-16.2-24.9-16.2-41.4c0-16.7,5.3-30.5,16-41.4s23.9-16.4,39.8-16.4
		c13.6,0,24.7,3.5,33.3,10.5c8.6,7,14.1,15.5,16.7,25.3l-23.3,8.5c-1.4-5.5-4.4-10.6-8.6-14.4C239.8,472.2,233.9,470.2,226.3,470.2z
		"/>
	<path id="Path_5" class="st1" d="M297.5,556.1c-3.6-3.5-5.6-8.4-5.5-13.4c-0.1-5.1,1.9-9.9,5.5-13.5c3.5-3.7,8.3-5.7,13.4-5.6
		c5.1-0.1,10,1.9,13.5,5.6c3.7,3.5,5.7,8.4,5.6,13.5c0.1,5.1-1.9,9.9-5.6,13.4c-3.6,3.6-8.5,5.6-13.5,5.5
		C305.9,561.7,301,559.7,297.5,556.1z"/>
</g>
</svg>
